<svg width="26" height="26" viewBox="0 0 26 26" fill="none" xmlns="http://www.w3.org/2000/svg">
<path d="M17.3333 8.66663C19.0572 8.66663 20.7105 9.35145 21.9295 10.5704C23.1485 11.7894 23.8333 13.4427 23.8333 15.1666V22.75H19.5V15.1666C19.5 14.592 19.2717 14.0409 18.8654 13.6346C18.4591 13.2282 17.908 13 17.3333 13C16.7587 13 16.2076 13.2282 15.8013 13.6346C15.3949 14.0409 15.1667 14.592 15.1667 15.1666V22.75H10.8333V15.1666C10.8333 13.4427 11.5182 11.7894 12.7371 10.5704C13.9561 9.35145 15.6094 8.66663 17.3333 8.66663V8.66663Z" stroke="#F9F5EC" stroke-width="2" stroke-linecap="round" stroke-linejoin="round"/>
<path d="M6.5 9.75H2.16667V22.75H6.5V9.75Z" stroke="#F9F5EC" stroke-width="2" stroke-linecap="round" stroke-linejoin="round"/>
<path d="M4.33333 6.49996C5.52995 6.49996 6.5 5.52991 6.5 4.33329C6.5 3.13668 5.52995 2.16663 4.33333 2.16663C3.13672 2.16663 2.16667 3.13668 2.16667 4.33329C2.16667 5.52991 3.13672 6.49996 4.33333 6.49996Z" stroke="#F9F5EC" stroke-width="2" stroke-linecap="round" stroke-linejoin="round"/>
</svg>
