<svg width="210" height="83" viewBox="0 0 210 83" fill="none" xmlns="http://www.w3.org/2000/svg">
<path d="M34.952 74.832L33.0658 77.1649L33.0658 77.1649L34.952 74.832ZM33.896 54.768L36.0739 56.8312L36.0872 56.8171L36.1004 56.8028L33.896 54.768ZM49.736 55.92L50.0992 58.8979L53.3005 58.5075L52.6799 55.3428L49.736 55.92ZM43.4 58.8L45.5213 60.9213L45.5213 60.9213L43.4 58.8ZM43.112 70.128L41.043 72.3004L41.043 72.3004L43.112 70.128ZM57.608 67.056L55.1636 65.3167L55.1636 65.3167L57.608 67.056ZM58.376 44.112L55.9911 45.932L56.0029 45.9474L56.0148 45.9626L58.376 44.112ZM38.024 44.784L36.3164 47.2506L37.878 48.3317L39.5232 47.3826L38.024 44.784ZM36.776 43.92L33.8361 43.3227L33.4423 45.2608L35.0684 46.3866L36.776 43.92ZM44.168 7.536L44.5109 4.55566L41.7761 4.24104L41.2281 6.9387L44.168 7.536ZM77 6.096L79.9877 5.82439L79.6435 2.03812L76.041 3.25339L77 6.096ZM74.504 17.328L72.2463 15.3525L72.2285 15.3728L72.2111 15.3934L74.504 17.328ZM55.016 18.864L55.6238 15.9262L55.6141 15.9242L55.6044 15.9223L55.016 18.864ZM50.12 18L50.5762 15.0349L47.7974 14.6074L47.1907 17.3526L50.12 18ZM46.28 35.376L43.3507 34.7286L42.0246 40.7292L47.5714 38.0838L46.28 35.376ZM70.568 37.776L68.2701 39.7046L68.2887 39.7268L68.3077 39.7486L70.568 37.776ZM71.72 65.904L69.1256 64.3976L69.1165 64.4133L69.1075 64.4292L71.72 65.904ZM62.12 75.216L63.5275 77.8653L63.5349 77.8614L63.5423 77.8574L62.12 75.216ZM47.912 75.48C42.6627 75.48 39.1162 74.3409 36.8382 72.4991L33.0658 77.1649C36.8038 80.1871 41.8973 81.48 47.912 81.48V75.48ZM36.8382 72.4991C34.6508 70.7306 33.44 68.1988 33.44 64.464H27.44C27.44 69.6892 29.2372 74.0694 33.0658 77.1649L36.8382 72.4991ZM33.44 64.464C33.44 61.0339 34.4017 58.5963 36.0739 56.8312L31.7181 52.7048C28.7823 55.8037 27.44 59.8301 27.44 64.464H33.44ZM36.1004 56.8028C37.7803 54.983 39.9587 54.024 42.92 54.024V48.024C38.4573 48.024 34.6197 49.561 31.6916 52.7332L36.1004 56.8028ZM42.92 54.024C44.4855 54.024 45.3421 54.3543 45.8018 54.6846C46.2035 54.9731 46.5894 55.4638 46.7921 56.4972L52.6799 55.3428C52.2426 53.1122 51.1725 51.1549 49.3022 49.8114C47.4899 48.5097 45.2585 48.024 42.92 48.024V54.024ZM49.3728 52.9421C46.2002 53.329 43.4295 54.5279 41.2787 56.6787L45.5213 60.9213C46.5705 59.8721 48.0238 59.151 50.0992 58.8979L49.3728 52.9421ZM41.2787 56.6787C39.0952 58.8622 38.096 61.685 38.096 64.848H44.096C44.096 63.019 44.6328 61.8098 45.5213 60.9213L41.2787 56.6787ZM38.096 64.848C38.096 67.7261 38.9839 70.3393 41.043 72.3004L45.181 67.9556C44.5521 67.3567 44.096 66.4499 44.096 64.848H38.096ZM41.043 72.3004C43.0563 74.2178 45.6467 75.048 48.488 75.048V69.048C46.8493 69.048 45.8557 68.5982 45.181 67.9556L41.043 72.3004ZM48.488 75.048C53.279 75.048 57.1874 72.8218 60.0524 68.7953L55.1636 65.3167C53.2926 67.9462 51.121 69.048 48.488 69.048V75.048ZM60.0524 68.7953C62.8685 64.8374 64.16 59.9269 64.16 54.288H58.16C58.16 59.017 57.0835 62.6186 55.1636 65.3167L60.0524 68.7953ZM64.16 54.288C64.16 49.5035 63.1614 45.3543 60.7372 42.2614L56.0148 45.9626C57.3026 47.6057 58.16 50.2405 58.16 54.288H64.16ZM60.7609 42.292C58.2822 39.0441 54.7686 37.464 50.6 37.464V43.464C53.0874 43.464 54.7578 44.3159 55.9911 45.932L60.7609 42.292ZM50.6 37.464C46.4323 37.464 41.6924 39.2041 36.5248 42.1854L39.5232 47.3826C44.3396 44.6039 47.9837 43.464 50.6 43.464V37.464ZM39.7316 42.3174L38.4836 41.4534L35.0684 46.3866L36.3164 47.2506L39.7316 42.3174ZM39.7159 44.5173L47.1079 8.13329L41.2281 6.9387L33.8361 43.3227L39.7159 44.5173ZM43.8251 10.5163C51.0777 11.3507 56.5954 11.784 60.296 11.784V5.784C56.9566 5.784 51.7223 5.38529 44.5109 4.55566L43.8251 10.5163ZM60.296 11.784C66.4333 11.784 72.3261 10.8389 77.959 8.93861L76.041 3.25339C71.0499 4.93715 65.8067 5.784 60.296 5.784V11.784ZM74.0123 6.36761C74.1385 7.75608 74.192 8.70134 74.192 9.264H80.192C80.192 8.41865 80.1175 7.25191 79.9877 5.82439L74.0123 6.36761ZM74.192 9.264C74.192 12.0343 73.4591 13.9664 72.2463 15.3525L76.7617 19.3035C79.1329 16.5936 80.192 13.1497 80.192 9.264H74.192ZM72.2111 15.3934C71.2667 16.5127 69.5039 17.4 66.152 17.4V23.4C70.4801 23.4 74.2853 22.2393 76.7969 19.2626L72.2111 15.3934ZM66.152 17.4C64.8834 17.4 63.2865 17.2609 61.3351 16.956L60.4089 22.884C62.5535 23.2191 64.4766 23.4 66.152 23.4V17.4ZM61.3351 16.956C59.3311 16.6428 57.4276 16.2994 55.6238 15.9262L54.4082 21.8018C56.3164 22.1966 58.3169 22.5572 60.4089 22.884L61.3351 16.956ZM55.6044 15.9223C53.9591 15.5932 52.283 15.2975 50.5762 15.0349L49.6638 20.9651C51.285 21.2145 52.8729 21.4948 54.4277 21.8057L55.6044 15.9223ZM47.1907 17.3526L43.3507 34.7286L49.2093 36.0234L53.0493 18.6474L47.1907 17.3526ZM47.5714 38.0838C51.4154 36.2505 54.9424 35.4 58.184 35.4V29.4C53.8736 29.4 49.4646 30.5335 44.9886 32.6682L47.5714 38.0838ZM58.184 35.4C62.6666 35.4 65.9057 36.8875 68.2701 39.7046L72.8659 35.8474C69.2143 31.4965 64.1974 29.4 58.184 29.4V35.4ZM68.3077 39.7486C70.774 42.5746 72.176 46.5981 72.176 52.176H78.176C78.176 45.5939 76.506 40.0174 72.8283 35.8034L68.3077 39.7486ZM72.176 52.176C72.176 56.9009 71.1309 60.9442 69.1256 64.3976L74.3144 67.4104C76.9172 62.9278 78.176 57.8191 78.176 52.176H72.176ZM69.1075 64.4292C67.1567 67.8849 64.3781 70.5928 60.6977 72.5746L63.5423 77.8574C68.1819 75.3592 71.8033 71.8591 74.3325 67.3788L69.1075 64.4292ZM60.7125 72.5667C57.1143 74.4782 52.8757 75.48 47.912 75.48V81.48C53.7003 81.48 58.9337 80.3058 63.5275 77.8653L60.7125 72.5667ZM85.4945 72.528L83.0213 74.226L83.0213 74.226L85.4945 72.528ZM85.2065 30.384L82.3878 29.3569L82.3878 29.3569L85.2065 30.384ZM96.7265 12.336L98.7445 14.5558L98.7459 14.5545L96.7265 12.336ZM127.542 11.664L125.142 13.464L125.151 13.4759L125.16 13.4877L127.542 11.664ZM128.983 50.928L131.871 51.7395L131.872 51.7334L128.983 50.928ZM118.519 70.8L116.258 68.8282L116.256 68.8301L118.519 70.8ZM110.263 64.848L107.671 63.3364L107.671 63.3364L110.263 64.848ZM116.695 47.088L113.771 46.4153L113.768 46.4276L113.765 46.44L116.695 47.088ZM117.751 15.216L114.925 16.225L114.929 16.2359L114.933 16.2467L117.751 15.216ZM98.0705 36.048L100.982 36.7695L100.982 36.7695L98.0705 36.048ZM100.471 75.96C94.036 75.96 90.1656 74.0313 87.9677 70.83L83.0213 74.226C86.7114 79.6007 92.825 81.96 100.471 81.96V75.96ZM87.9677 70.83C85.4847 67.2135 84.0785 62.0263 84.0785 54.96H78.0785C78.0785 62.7417 79.6163 69.2665 83.0213 74.226L87.9677 70.83ZM84.0785 54.96C84.0785 46.4438 85.4044 38.603 88.0252 31.4111L82.3878 29.3569C79.5046 37.269 78.0785 45.8122 78.0785 54.96H84.0785ZM88.0252 31.4111C90.6449 24.222 94.2432 18.6479 98.7445 14.5558L94.7085 10.1162C89.3538 14.9841 85.2721 21.442 82.3878 29.3569L88.0252 31.4111ZM98.7459 14.5545C103.225 10.4774 108.181 8.51999 113.719 8.51999V2.51999C106.584 2.51999 100.212 5.10659 94.7071 10.1175L98.7459 14.5545ZM113.719 8.51999C119.131 8.51999 122.753 10.2785 125.142 13.464L129.943 9.864C126.188 4.8575 120.594 2.51999 113.719 2.51999V8.51999ZM125.16 13.4877C127.766 16.8904 129.247 21.7994 129.247 28.56H135.247C135.247 20.9846 133.591 14.6296 129.925 9.84026L125.16 13.4877ZM129.247 28.56C129.247 35.3566 128.206 42.5407 126.093 50.1226L131.872 51.7334C134.111 43.6993 135.247 35.9714 135.247 28.56H129.247ZM126.094 50.1165C124.026 57.4759 120.736 63.6924 116.258 68.8282L120.779 72.7718C125.901 66.8995 129.587 59.8681 131.871 51.7395L126.094 50.1165ZM116.256 68.8301C112.097 73.6071 106.91 75.96 100.471 75.96V81.96C108.623 81.96 115.468 78.8729 120.781 72.7699L116.256 68.8301ZM101.719 74.76C106.422 74.76 110.047 71.1717 112.854 66.3596L107.671 63.3364C105.102 67.7403 103.031 68.76 101.719 68.76V74.76ZM112.854 66.3596C115.746 61.4013 117.981 55.163 119.624 47.736L113.765 46.44C112.208 53.477 110.155 59.0787 107.671 63.3364L112.854 66.3596ZM119.618 47.7607C121.332 40.3099 122.191 32.7883 122.191 25.2H116.191C116.191 32.3317 115.385 39.4021 113.771 46.4153L119.618 47.7607ZM122.191 25.2C122.191 20.9587 121.689 17.2509 120.568 14.1853L114.933 16.2467C115.732 18.4291 116.191 21.3773 116.191 25.2H122.191ZM120.576 14.207C119.481 11.1413 117.372 8.184 113.623 8.184V14.184C113.674 14.184 113.729 14.1693 113.902 14.3381C114.145 14.575 114.531 15.1197 114.925 16.225L120.576 14.207ZM113.623 8.184C108.975 8.184 105.318 11.8231 102.413 16.6433L107.552 19.7407C110.279 15.2169 112.382 14.184 113.623 14.184V8.184ZM102.413 16.6433C99.3973 21.6469 96.9983 27.9018 95.1586 35.3265L100.982 36.7695C102.727 29.7302 104.936 24.0811 107.552 19.7407L102.413 16.6433ZM95.1586 35.3265C93.312 42.7785 92.3825 50.1249 92.3825 57.36H98.3825C98.3825 50.6431 99.245 43.7815 100.982 36.7695L95.1586 35.3265ZM92.3825 57.36C92.3825 62.2874 92.9105 66.3908 94.2206 69.3682C94.8907 70.8912 95.8263 72.2599 97.1349 73.2513C98.4822 74.2719 100.052 74.76 101.719 74.76V68.76C101.273 68.76 100.995 68.6481 100.758 68.4687C100.483 68.2601 100.098 67.8288 99.7124 66.9518C98.9105 65.1292 98.3825 62.0326 98.3825 57.36H92.3825Z" fill="#F4B80D"/>
<path d="M142.824 22.0298H146.28L145.896 23.8298C146.696 23.1418 147.632 22.7978 148.704 22.7978C149.6 22.7978 150.312 23.0938 150.84 23.6858C151.368 24.2778 151.632 25.2458 151.632 26.5898C151.632 27.8538 151.448 29.1338 151.08 30.4298C150.712 31.7098 150.088 32.8058 149.208 33.7178C148.328 34.6138 147.168 35.0618 145.728 35.0618C144.704 35.0618 144.024 34.7738 143.688 34.1978L142.44 40.0538L138.816 40.9178L142.824 22.0298ZM144.984 32.9738C145.752 32.9738 146.384 32.6138 146.88 31.8938C147.392 31.1738 147.76 30.3178 147.984 29.3258C148.224 28.3178 148.344 27.3818 148.344 26.5178C148.344 25.1898 147.944 24.5258 147.144 24.5258C146.856 24.5258 146.56 24.6298 146.256 24.8378C145.968 25.0458 145.712 25.3338 145.488 25.7018L144.072 32.4218C144.2 32.7898 144.504 32.9738 144.984 32.9738ZM153.859 22.9178H157.315L157.003 24.4058C157.547 23.9258 158.035 23.5578 158.467 23.3018C158.915 23.0458 159.395 22.9178 159.907 22.9178C160.419 22.9178 160.819 23.0938 161.107 23.4458C161.411 23.7978 161.563 24.2218 161.563 24.7178C161.563 25.1818 161.411 25.5898 161.107 25.9418C160.803 26.2938 160.379 26.4698 159.835 26.4698C159.483 26.4698 159.243 26.3898 159.115 26.2298C159.003 26.0538 158.915 25.8058 158.851 25.4858C158.803 25.2778 158.755 25.1258 158.707 25.0298C158.659 24.9338 158.571 24.8858 158.443 24.8858C158.107 24.8858 157.819 24.9578 157.579 25.1018C157.355 25.2298 157.059 25.4618 156.691 25.7978L154.771 34.9178H151.315L153.859 22.9178ZM164.754 35.0138C163.57 35.0138 162.634 34.7098 161.946 34.1018C161.258 33.4938 160.914 32.5338 160.914 31.2218C160.914 30.1338 161.138 28.9258 161.586 27.5978C162.034 26.2698 162.754 25.1258 163.746 24.1658C164.738 23.1898 165.986 22.7018 167.49 22.7018C169.538 22.7018 170.562 23.9818 170.562 26.5418V26.5658C170.61 26.5818 170.698 26.5898 170.826 26.5898C171.354 26.5898 171.962 26.4538 172.65 26.1818C173.338 25.8938 173.962 25.5498 174.522 25.1498L174.738 25.7978C174.274 26.2938 173.666 26.7178 172.914 27.0698C172.178 27.4058 171.37 27.6458 170.49 27.7898C170.362 29.2458 170.034 30.5178 169.506 31.6058C168.978 32.6938 168.298 33.5338 167.466 34.1258C166.634 34.7178 165.73 35.0138 164.754 35.0138ZM165.714 32.8538C166.098 32.8538 166.482 32.6378 166.866 32.2058C167.25 31.7578 167.586 31.1578 167.874 30.4058C168.162 29.6378 168.37 28.7898 168.498 27.8618C168.066 27.7658 167.85 27.4298 167.85 26.8538C167.85 26.1978 168.098 25.7658 168.594 25.5578C168.562 25.0298 168.482 24.6698 168.354 24.4778C168.226 24.2698 168.002 24.1658 167.682 24.1658C167.154 24.1658 166.642 24.5498 166.146 25.3178C165.65 26.0858 165.25 27.0058 164.946 28.0778C164.642 29.1498 164.49 30.0938 164.49 30.9098C164.49 31.6778 164.578 32.1978 164.754 32.4698C164.93 32.7258 165.25 32.8538 165.714 32.8538ZM175.613 21.5978C175.085 21.5978 174.637 21.4138 174.269 21.0458C173.901 20.6778 173.717 20.2298 173.717 19.7018C173.717 19.1738 173.901 18.7258 174.269 18.3578C174.637 17.9738 175.085 17.7818 175.613 17.7818C176.141 17.7818 176.589 17.9738 176.957 18.3578C177.341 18.7258 177.533 19.1738 177.533 19.7018C177.533 20.2298 177.341 20.6778 176.957 21.0458C176.589 21.4138 176.141 21.5978 175.613 21.5978ZM169.637 40.9178C168.869 40.9178 168.229 40.7178 167.717 40.3178C167.205 39.9178 166.949 39.3418 166.949 38.5898C166.949 37.0378 168.261 35.8458 170.885 35.0138L173.453 22.9178H176.909L174.533 34.0538C175.301 33.7978 175.917 33.4138 176.381 32.9018C176.845 32.3898 177.237 31.6298 177.557 30.6218H178.565C178.133 32.0458 177.549 33.0938 176.813 33.7658C176.077 34.4218 175.245 34.8698 174.317 35.1098L173.957 36.8378C173.637 38.3898 173.085 39.4538 172.301 40.0298C171.517 40.6218 170.629 40.9178 169.637 40.9178ZM169.085 39.0458C169.357 39.0458 169.621 38.8618 169.877 38.4938C170.133 38.1258 170.333 37.5978 170.477 36.9098L170.621 36.2138C169.053 36.7898 168.269 37.4698 168.269 38.2538C168.269 38.4618 168.341 38.6458 168.485 38.8058C168.629 38.9658 168.829 39.0458 169.085 39.0458ZM180.995 35.0618C179.811 35.0618 178.891 34.7578 178.235 34.1498C177.579 33.5258 177.25 32.5578 177.25 31.2458C177.25 30.1418 177.466 28.9258 177.899 27.5978C178.331 26.2698 179.035 25.1258 180.011 24.1658C180.987 23.1898 182.227 22.7018 183.73 22.7018C185.491 22.7018 186.371 23.4698 186.371 25.0058C186.371 25.9018 186.115 26.7258 185.603 27.4778C185.091 28.2298 184.411 28.8378 183.562 29.3018C182.715 29.7498 181.811 30.0058 180.851 30.0698C180.819 30.5498 180.803 30.8698 180.803 31.0298C180.803 31.8138 180.939 32.3498 181.211 32.6378C181.483 32.9098 181.923 33.0458 182.531 33.0458C183.395 33.0458 184.131 32.8458 184.739 32.4458C185.363 32.0458 186.043 31.4378 186.779 30.6218H187.595C185.819 33.5818 183.619 35.0618 180.995 35.0618ZM181.043 28.9178C181.635 28.8858 182.195 28.6778 182.723 28.2938C183.267 27.9098 183.699 27.4218 184.019 26.8298C184.355 26.2378 184.523 25.6138 184.523 24.9578C184.523 24.3018 184.323 23.9738 183.923 23.9738C183.347 23.9738 182.779 24.4778 182.219 25.4858C181.675 26.4938 181.283 27.6378 181.043 28.9178ZM190.205 35.0618C189.021 35.0618 188.101 34.7578 187.445 34.1498C186.789 33.5258 186.461 32.5578 186.461 31.2458C186.461 30.1418 186.677 28.9258 187.109 27.5978C187.557 26.2698 188.261 25.1258 189.221 24.1658C190.197 23.1898 191.429 22.7018 192.917 22.7018C193.877 22.7018 194.557 22.9098 194.957 23.3258C195.373 23.7418 195.581 24.2698 195.581 24.9098C195.581 25.4698 195.461 25.9018 195.221 26.2058C194.981 26.5098 194.677 26.6618 194.309 26.6618C194.037 26.6618 193.757 26.5658 193.469 26.3738C193.661 25.8458 193.757 25.3738 193.757 24.9578C193.757 24.6538 193.701 24.4138 193.589 24.2378C193.477 24.0618 193.309 23.9738 193.085 23.9738C192.605 23.9738 192.125 24.3658 191.645 25.1498C191.165 25.9338 190.773 26.8858 190.469 28.0058C190.165 29.1258 190.013 30.1338 190.013 31.0298C190.013 31.8138 190.149 32.3498 190.421 32.6378C190.693 32.9098 191.133 33.0458 191.741 33.0458C192.605 33.0458 193.341 32.8458 193.949 32.4458C194.573 32.0458 195.253 31.4378 195.989 30.6218H196.805C195.029 33.5818 192.829 35.0618 190.205 35.0618ZM198.36 35.0618C197.592 35.0618 196.968 34.8218 196.488 34.3418C196.024 33.8618 195.792 33.1418 195.792 32.1818C195.792 31.7818 195.856 31.2618 195.984 30.6218L197.424 23.8778H196.632L196.824 22.9178H197.616L198.336 19.6058L201.888 19.1258L201.072 22.9178H202.512L202.32 23.8778H200.88L199.344 31.0778C199.28 31.3178 199.248 31.5738 199.248 31.8458C199.248 32.1658 199.32 32.3978 199.464 32.5418C199.624 32.6698 199.88 32.7338 200.232 32.7338C200.696 32.7338 201.128 32.5418 201.528 32.1578C201.928 31.7578 202.216 31.2458 202.392 30.6218H203.4C202.808 32.3498 202.048 33.5258 201.12 34.1498C200.192 34.7578 199.272 35.0618 198.36 35.0618ZM205.119 35.0618C204.351 35.0618 203.703 34.9178 203.175 34.6298C202.647 34.3258 202.255 33.9418 201.999 33.4778C201.743 32.9978 201.615 32.5018 201.615 31.9898C201.615 31.4618 201.743 31.0058 201.999 30.6218C202.239 30.2218 202.535 29.9338 202.887 29.7578C203.511 28.6378 204.055 27.5098 204.519 26.3738C204.983 25.2218 205.423 23.9818 205.839 22.6538L209.391 22.1738C209.471 24.2218 209.607 26.4378 209.799 28.8218C209.879 29.7818 209.919 30.4778 209.919 30.9098C209.919 31.8858 209.671 32.6858 209.175 33.3098C208.679 33.9338 208.063 34.3818 207.327 34.6538C206.607 34.9258 205.871 35.0618 205.119 35.0618ZM204.351 33.1658C204.943 33.1658 205.439 32.9898 205.839 32.6378C206.239 32.2858 206.439 31.7178 206.439 30.9338C206.439 30.4538 206.391 29.7818 206.295 28.9178C206.135 27.0938 206.031 25.8698 205.983 25.2458C205.599 26.5098 204.951 28.0218 204.039 29.7818C204.407 29.9738 204.591 30.2538 204.591 30.6218C204.591 30.9258 204.487 31.1978 204.279 31.4378C204.087 31.6778 203.839 31.7978 203.535 31.7978C203.199 31.7978 202.983 31.6938 202.887 31.4858C202.887 32.0618 202.999 32.4858 203.223 32.7578C203.463 33.0298 203.839 33.1658 204.351 33.1658Z" fill="#F9F5EC"/>
<path d="M143.88 64.6235C142.968 64.6235 142.208 64.3115 141.6 63.6875C140.992 63.0635 140.688 62.0875 140.688 60.7595C140.688 59.5755 140.92 58.3355 141.384 57.0395C141.864 55.7275 142.568 54.6235 143.496 53.7275C144.44 52.8155 145.56 52.3595 146.856 52.3595C147.512 52.3595 148 52.4715 148.32 52.6955C148.64 52.9195 148.8 53.2155 148.8 53.5835V53.6795L149.976 48.1595L153.528 47.6795L150.768 60.6395C150.704 60.8795 150.672 61.1355 150.672 61.4075C150.672 61.7275 150.744 61.9595 150.888 62.1035C151.048 62.2315 151.304 62.2955 151.656 62.2955C152.104 62.2955 152.488 62.1035 152.808 61.7195C153.144 61.3355 153.408 60.8235 153.6 60.1835H154.608C153.632 63.0475 152.024 64.4795 149.784 64.4795C149.128 64.4795 148.592 64.3035 148.176 63.9515C147.776 63.5995 147.528 63.0875 147.432 62.4155C147.016 63.0555 146.512 63.5835 145.92 63.9995C145.344 64.4155 144.664 64.6235 143.88 64.6235ZM145.44 62.2955C145.824 62.2955 146.208 62.1195 146.592 61.7675C146.992 61.4155 147.264 60.9275 147.408 60.3035V60.1835L148.584 54.6875C148.44 54.1275 148.112 53.8475 147.6 53.8475C146.96 53.8475 146.384 54.2235 145.872 54.9755C145.36 55.7115 144.96 56.6075 144.672 57.6635C144.384 58.7035 144.24 59.6235 144.24 60.4235C144.24 61.2235 144.352 61.7355 144.576 61.9595C144.816 62.1835 145.104 62.2955 145.44 62.2955ZM156.489 64.6235C155.577 64.6235 154.817 64.3115 154.209 63.6875C153.601 63.0635 153.297 62.0875 153.297 60.7595C153.297 59.5755 153.529 58.3355 153.993 57.0395C154.473 55.7275 155.177 54.6235 156.105 53.7275C157.049 52.8155 158.169 52.3595 159.465 52.3595C160.121 52.3595 160.609 52.4715 160.929 52.6955C161.249 52.9195 161.409 53.2155 161.409 53.5835V53.7515L161.673 52.4795H165.129L163.401 60.6395C163.337 60.8795 163.305 61.1355 163.305 61.4075C163.305 62.0955 163.633 62.4395 164.289 62.4395C164.737 62.4395 165.121 62.2315 165.441 61.8155C165.777 61.3995 166.041 60.8555 166.233 60.1835H167.241C166.649 61.9115 165.913 63.0875 165.033 63.7115C164.169 64.3195 163.297 64.6235 162.417 64.6235C161.745 64.6235 161.201 64.4395 160.785 64.0715C160.385 63.6875 160.145 63.1355 160.065 62.4155C159.601 63.0715 159.081 63.6075 158.505 64.0235C157.945 64.4235 157.273 64.6235 156.489 64.6235ZM158.049 62.2955C158.449 62.2955 158.841 62.1115 159.225 61.7435C159.625 61.3595 159.897 60.8395 160.041 60.1835L161.193 54.7595C161.193 54.5515 161.113 54.3515 160.953 54.1595C160.793 53.9515 160.545 53.8475 160.209 53.8475C159.569 53.8475 158.993 54.2235 158.481 54.9755C157.969 55.7115 157.569 56.6075 157.281 57.6635C156.993 58.7035 156.849 59.6235 156.849 60.4235C156.849 61.2235 156.961 61.7355 157.185 61.9595C157.425 62.1835 157.713 62.2955 158.049 62.2955ZM169.986 70.4795C169.218 70.4795 168.578 70.2795 168.066 69.8795C167.554 69.4795 167.298 68.9035 167.298 68.1515C167.298 67.2395 167.666 66.5035 168.402 65.9435C169.138 65.3995 170.074 64.9435 171.21 64.5755L171.498 63.2795C171.034 63.7915 170.562 64.1435 170.082 64.3355C169.602 64.5275 169.114 64.6235 168.618 64.6235C167.85 64.6235 167.226 64.3835 166.746 63.9035C166.282 63.4235 166.05 62.7035 166.05 61.7435C166.05 61.3435 166.114 60.8235 166.242 60.1835L167.874 52.4795H171.33L169.602 60.6395C169.554 60.8315 169.53 61.0315 169.53 61.2395C169.53 61.9435 169.77 62.2955 170.25 62.2955C170.666 62.2955 171.034 62.1195 171.354 61.7675C171.674 61.3995 171.93 60.9195 172.122 60.3275L173.802 52.4795H177.258L174.882 63.6155C175.65 63.3595 176.266 62.9755 176.73 62.4635C177.194 61.9515 177.586 61.1915 177.906 60.1835H178.914C178.482 61.6075 177.898 62.6555 177.162 63.3275C176.426 63.9835 175.594 64.4315 174.666 64.6715L174.306 66.3995C173.986 67.9515 173.434 69.0155 172.65 69.5915C171.866 70.1835 170.978 70.4795 169.986 70.4795ZM169.434 68.6075C169.706 68.6075 169.97 68.4235 170.226 68.0555C170.482 67.6875 170.682 67.1595 170.826 66.4715L170.97 65.7755C169.402 66.3515 168.618 67.0315 168.618 67.8155C168.618 68.0235 168.69 68.2075 168.834 68.3675C168.978 68.5275 169.178 68.6075 169.434 68.6075ZM180.65 64.6235C179.882 64.6235 179.234 64.4795 178.706 64.1915C178.178 63.8875 177.786 63.5035 177.53 63.0395C177.274 62.5595 177.146 62.0635 177.146 61.5515C177.146 61.0235 177.274 60.5675 177.53 60.1835C177.77 59.7835 178.066 59.4955 178.418 59.3195C179.042 58.1995 179.586 57.0715 180.05 55.9355C180.514 54.7835 180.954 53.5435 181.37 52.2155L184.922 51.7355C185.002 53.7835 185.138 55.9995 185.33 58.3835C185.41 59.3435 185.45 60.0395 185.45 60.4715C185.45 61.4475 185.202 62.2475 184.706 62.8715C184.21 63.4955 183.594 63.9435 182.858 64.2155C182.138 64.4875 181.402 64.6235 180.65 64.6235ZM179.882 62.7275C180.474 62.7275 180.97 62.5515 181.37 62.1995C181.77 61.8475 181.97 61.2795 181.97 60.4955C181.97 60.0155 181.922 59.3435 181.826 58.4795C181.666 56.6555 181.562 55.4315 181.514 54.8075C181.13 56.0715 180.482 57.5835 179.57 59.3435C179.938 59.5355 180.122 59.8155 180.122 60.1835C180.122 60.4875 180.018 60.7595 179.81 60.9995C179.618 61.2395 179.37 61.3595 179.066 61.3595C178.73 61.3595 178.514 61.2555 178.418 61.0475C178.418 61.6235 178.53 62.0475 178.754 62.3195C178.994 62.5915 179.37 62.7275 179.882 62.7275Z" fill="#F9F5EC"/>
<path d="M5.008 51.1835C4.48 51.1835 4.032 50.9995 3.664 50.6315C3.296 50.2635 3.112 49.8155 3.112 49.2875C3.112 48.7595 3.296 48.3115 3.664 47.9435C4.032 47.5595 4.48 47.3675 5.008 47.3675C5.536 47.3675 5.984 47.5595 6.352 47.9435C6.736 48.3115 6.928 48.7595 6.928 49.2875C6.928 49.8155 6.736 50.2635 6.352 50.6315C5.984 50.9995 5.536 51.1835 5.008 51.1835ZM3.376 64.6235C2.608 64.6235 1.984 64.3835 1.504 63.9035C1.04 63.4235 0.808 62.7035 0.808 61.7435C0.808 61.3435 0.872 60.8235 1 60.1835L2.632 52.4795H6.088L4.36 60.6395C4.296 60.8795 4.264 61.1355 4.264 61.4075C4.264 61.7275 4.336 61.9595 4.48 62.1035C4.64 62.2315 4.896 62.2955 5.248 62.2955C5.712 62.2955 6.144 62.1035 6.544 61.7195C6.944 61.3195 7.232 60.8075 7.408 60.1835H8.416C7.824 61.9115 7.064 63.0875 6.136 63.7115C5.208 64.3195 4.288 64.6235 3.376 64.6235ZM15.6544 64.6235C14.8064 64.6235 14.1904 64.3675 13.8064 63.8555C13.4224 63.3435 13.2304 62.6955 13.2304 61.9115C13.2304 61.5755 13.2704 61.1995 13.3504 60.7835C13.4304 60.3515 13.5104 59.9355 13.5904 59.5355C13.6864 59.1355 13.7504 58.8795 13.7824 58.7675C13.9104 58.2075 14.0304 57.6555 14.1424 57.1115C14.2544 56.5675 14.3104 56.1275 14.3104 55.7915C14.3104 54.9755 14.0224 54.5675 13.4464 54.5675C13.0304 54.5675 12.6624 54.7755 12.3424 55.1915C12.0224 55.5915 11.7664 56.1195 11.5744 56.7755L9.94244 64.4795H6.48644L9.03044 52.4795H12.4864L12.2224 53.7275C13.0224 52.8315 13.9584 52.3835 15.0304 52.3835C15.8464 52.3835 16.4944 52.6075 16.9744 53.0555C17.4544 53.5035 17.6944 54.1835 17.6944 55.0955C17.6944 55.5595 17.6384 56.0795 17.5264 56.6555C17.4144 57.2155 17.2544 57.9035 17.0464 58.7195C16.9184 59.2155 16.7984 59.7035 16.6864 60.1835C16.5904 60.6475 16.5424 61.0155 16.5424 61.2875C16.5424 61.6075 16.6144 61.8555 16.7584 62.0315C16.9024 62.2075 17.1504 62.2955 17.5024 62.2955C17.8864 62.2955 18.1504 62.2475 18.2944 62.1515C18.1984 62.9675 17.9024 63.5835 17.4064 63.9995C16.9264 64.4155 16.3424 64.6235 15.6544 64.6235Z" fill="#F9F5EC"/>
</svg>
